<?xml version="1.0" encoding="utf-8"?>
<!-- Generator: Adobe Illustrator 16.0.0, SVG Export Plug-In . SVG Version: 6.00 Build 0)  -->
<!DOCTYPE svg PUBLIC "-//W3C//DTD SVG 1.1//EN" "http://www.w3.org/Graphics/SVG/1.1/DTD/svg11.dtd">
<svg version="1.1" id="Layer_1" xmlns="http://www.w3.org/2000/svg" xmlns:xlink="http://www.w3.org/1999/xlink" x="0px" y="0px"
	 width="197.754px" height="98.62px" viewBox="0 0 197.754 98.62" enable-background="new 0 0 197.754 98.62" xml:space="preserve">
<polygon fill="#F16522" points="13.49,33.687 0,33.687 0,38.571 11.608,38.571 14.812,50.989 17.073,59.754 19.514,51.046 
	20,49.314 22.212,60.448 25.107,75.021 27.019,60.287 30.43,33.99 32.622,47.718 34.06,56.728 37.305,48.205 40.973,38.571 
	160.78,38.571 162.593,38.571 163.117,36.825 165.658,28.356 168.816,36.968 169.403,38.571 171.104,38.571 181.379,38.571 
	181.379,43.339 197.754,36.129 181.379,28.918 181.379,33.687 172.807,33.687 167.716,19.803 165.195,12.927 163.09,19.945 
	158.967,33.687 39.292,33.687 37.611,33.687 37.013,35.261 35.991,37.943 32.586,16.613 29.935,0 27.77,16.689 24.104,44.942 
	22.799,38.372 20.81,28.363 18.059,38.181 17.263,41.021 15.845,35.528 15.37,33.687 "/>
<path fill="#231F20" d="M152.322,27.704h-5.249l-6.887-22.458h4.982l4.542,15.694l4.516-15.694h4.982L152.322,27.704z
	 M127.494,27.704V5.246h4.982v18.121h9.825v4.337H127.494z M117.448,27.704v-4.695h4.828v4.695H117.448z M106.813,27.704V9.583
	h-5.684V5.246h16.334v4.337h-5.683v18.121H106.813z M83.086,5.246h5.658c2.007,0,3.502,0.072,4.475,0.215
	c0.973,0.149,1.787,0.389,2.437,0.732c1.02,0.538,1.797,1.295,2.329,2.273c0.538,0.973,0.804,2.109,0.804,3.41
	c0,1.511-0.354,2.791-1.059,3.835c-0.702,1.045-1.72,1.798-3.053,2.258l4.906,9.734h-5.489l-4.362-9.149h-1.665v9.149h-4.982V5.246z
	 M88.068,9.056v5.899h1.376c1.742,0,2.903-0.216,3.487-0.646s0.875-1.203,0.875-2.31c0-1.101-0.292-1.868-0.875-2.299
	c-0.584-0.43-1.745-0.645-3.487-0.645H88.068z M62.626,27.704V5.246h15.15v4.337H67.608v4.02h6.943v4.337h-6.943v5.427h10.813v4.337
	H62.626z M41.925,14.488c0-2.299,0.148-3.979,0.45-5.032C42.673,8.4,43.19,7.5,43.921,6.747c0.671-0.681,1.48-1.198,2.428-1.551
	c0.952-0.354,2.017-0.533,3.195-0.533c2.16,0,3.958,0.604,5.387,1.817c1.428,1.208,2.145,2.693,2.145,4.456v1.351H52.14
	c-0.041-1.152-0.266-1.986-0.676-2.509C51.055,9.261,50.414,9,49.544,9c-0.967,0-1.643,0.261-2.018,0.788
	c-0.374,0.522-0.563,1.808-0.563,3.845v5.647c0,1.951,0.185,3.216,0.553,3.785c0.373,0.568,1.049,0.855,2.028,0.855
	c0.922,0,1.582-0.277,1.981-0.835c0.399-0.552,0.599-1.474,0.599-2.77v-0.328h4.951v1.501c0,2.022-0.69,3.661-2.079,4.915
	c-1.382,1.254-3.2,1.884-5.453,1.884c-1.178,0-2.243-0.179-3.195-0.532c-0.948-0.354-1.756-0.871-2.428-1.552
	c-0.731-0.752-1.249-1.653-1.546-2.708c-0.302-1.055-0.45-2.734-0.45-5.034V14.488z"/>
<path fill="#231F20" d="M127.028,78.04V70.1h0.995v1.128c0.24-0.44,0.533-0.767,0.878-0.983c0.347-0.216,0.745-0.327,1.195-0.327
	c0.347,0,0.67,0.069,0.966,0.208c0.296,0.137,0.537,0.315,0.718,0.538c0.184,0.222,0.318,0.51,0.408,0.862
	c0.088,0.356,0.135,0.899,0.135,1.631v4.883h-1.108v-4.831c0-0.582-0.048-1.008-0.15-1.279c-0.1-0.268-0.256-0.476-0.467-0.622
	c-0.212-0.148-0.457-0.222-0.735-0.222c-0.529,0-0.949,0.199-1.264,0.592c-0.314,0.392-0.472,1.068-0.472,2.025v4.336H127.028z
	 M120.876,73.305h3.631c-0.047-0.686-0.196-1.199-0.438-1.539c-0.354-0.492-0.807-0.74-1.354-0.74c-0.493,0-0.914,0.207-1.264,0.617
	C121.101,72.054,120.911,72.608,120.876,73.305z M124.503,75.482l1.135,0.171c-0.188,0.846-0.533,1.488-1.029,1.919
	c-0.494,0.431-1.11,0.646-1.841,0.646c-0.924,0-1.669-0.351-2.241-1.049c-0.569-0.701-0.855-1.712-0.855-3.031
	c0-1.37,0.289-2.417,0.862-3.137c0.577-0.723,1.308-1.082,2.188-1.082c0.843,0,1.547,0.355,2.108,1.063
	c0.563,0.709,0.845,1.732,0.845,3.072l-0.005,0.36h-4.862c0.046,0.894,0.253,1.565,0.622,2.019c0.368,0.454,0.818,0.682,1.347,0.682
	C123.602,77.113,124.179,76.57,124.503,75.482z M113.798,74.076c0,1.028,0.176,1.788,0.533,2.29
	c0.357,0.497,0.771,0.748,1.245,0.748c0.467,0,0.875-0.239,1.218-0.72c0.345-0.478,0.515-1.2,0.515-2.166
	c0-1.114-0.17-1.925-0.515-2.436c-0.342-0.509-0.777-0.765-1.299-0.765c-0.465,0-0.863,0.245-1.197,0.737
	C113.963,72.253,113.798,73.025,113.798,74.076z M117.289,78.04v-1.003c-0.2,0.385-0.456,0.679-0.77,0.881
	c-0.314,0.202-0.653,0.301-1.019,0.301c-0.766,0-1.432-0.362-1.99-1.088c-0.563-0.723-0.843-1.745-0.843-3.062
	c0-0.901,0.125-1.667,0.375-2.294c0.249-0.627,0.583-1.094,0.998-1.398c0.416-0.304,0.879-0.457,1.386-0.457
	c0.365,0,0.702,0.097,1.014,0.289c0.311,0.191,0.568,0.458,0.773,0.803v-3.933h1.107V78.04H117.289z M110.273,78.04V70.1h1.1v7.939
	H110.273z M110.273,68.627v-1.549h1.1v1.549H110.273z M108.263,75.129l1.084,0.174c-0.125,0.947-0.437,1.669-0.939,2.167
	c-0.5,0.5-1.103,0.748-1.804,0.748c-0.852,0-1.554-0.351-2.106-1.049c-0.551-0.701-0.826-1.735-0.826-3.108
	c0-1.38,0.278-2.415,0.833-3.105c0.557-0.689,1.271-1.037,2.141-1.037c0.674,0,1.241,0.21,1.702,0.627
	c0.463,0.422,0.755,1.05,0.886,1.887l-1.069,0.201c-0.104-0.539-0.286-0.941-0.545-1.207c-0.259-0.268-0.569-0.4-0.935-0.4
	c-0.544,0-0.992,0.241-1.35,0.722c-0.355,0.48-0.534,1.243-0.534,2.293c0,1.079,0.171,1.862,0.514,2.347
	c0.339,0.482,0.778,0.725,1.311,0.725c0.418,0,0.776-0.161,1.073-0.483C107.994,76.309,108.183,75.809,108.263,75.129z M97.01,78.04
	V70.1h0.996v1.128c0.239-0.44,0.533-0.767,0.878-0.983c0.347-0.216,0.745-0.327,1.194-0.327c0.347,0,0.671,0.069,0.967,0.208
	c0.296,0.137,0.535,0.315,0.717,0.538c0.184,0.222,0.318,0.51,0.408,0.862c0.089,0.356,0.135,0.899,0.135,1.631v4.883h-1.107v-4.831
	c0-0.582-0.049-1.008-0.151-1.279c-0.1-0.268-0.255-0.476-0.467-0.622c-0.212-0.148-0.457-0.222-0.735-0.222
	c-0.527,0-0.949,0.199-1.263,0.592c-0.314,0.392-0.472,1.068-0.472,2.025v4.336H97.01z M94.222,78.04V70.1h1.099v7.939H94.222z
	 M94.222,68.627v-1.549h1.099v1.549H94.222z M84.031,75.668l1.092-0.21c0.063,0.56,0.243,0.975,0.531,1.245
	c0.288,0.271,0.673,0.41,1.151,0.41c0.48,0,0.851-0.121,1.11-0.355c0.263-0.237,0.394-0.539,0.394-0.9
	c0-0.318-0.112-0.559-0.337-0.735c-0.154-0.118-0.528-0.269-1.121-0.447c-0.858-0.265-1.432-0.49-1.72-0.673
	c-0.289-0.184-0.514-0.432-0.673-0.741c-0.159-0.31-0.238-0.661-0.238-1.054c0-0.679,0.218-1.23,0.648-1.654
	c0.435-0.423,1.037-0.635,1.805-0.635c0.482,0,0.906,0.09,1.273,0.263c0.367,0.173,0.645,0.408,0.841,0.702
	c0.194,0.296,0.33,0.717,0.404,1.263l-1.078,0.18c-0.099-0.867-0.571-1.301-1.413-1.301c-0.478,0-0.835,0.097-1.07,0.288
	c-0.232,0.192-0.349,0.436-0.349,0.735c0,0.297,0.112,0.526,0.333,0.696c0.136,0.1,0.534,0.259,1.198,0.478
	c0.913,0.296,1.503,0.529,1.773,0.7c0.268,0.174,0.476,0.406,0.628,0.705c0.147,0.296,0.223,0.647,0.223,1.056
	c0,0.759-0.243,1.371-0.721,1.84c-0.483,0.467-1.139,0.702-1.971,0.702C85.184,78.226,84.28,77.373,84.031,75.668z M81.625,74.053
	c-0.404,0.201-1.004,0.37-1.802,0.509c-0.461,0.08-0.786,0.172-0.972,0.274c-0.184,0.102-0.327,0.244-0.429,0.433
	c-0.102,0.186-0.153,0.402-0.153,0.646c0,0.377,0.117,0.682,0.352,0.908c0.232,0.227,0.557,0.34,0.97,0.34
	c0.396,0,0.753-0.102,1.075-0.306c0.321-0.204,0.562-0.478,0.721-0.819c0.159-0.34,0.238-0.838,0.238-1.49V74.053z M81.714,77.06
	c-0.369,0.386-0.75,0.674-1.151,0.867c-0.398,0.195-0.812,0.292-1.241,0.292c-0.679,0-1.22-0.204-1.623-0.612
	c-0.403-0.409-0.604-0.959-0.604-1.651c0-0.459,0.094-0.865,0.283-1.219c0.189-0.356,0.449-0.63,0.778-0.83
	c0.33-0.2,0.828-0.347,1.496-0.441c0.896-0.131,1.555-0.283,1.973-0.464l0.008-0.343c0-0.544-0.098-0.926-0.292-1.146
	c-0.273-0.32-0.694-0.479-1.263-0.479c-0.513,0-0.898,0.105-1.151,0.318c-0.255,0.211-0.441,0.61-0.561,1.194l-1.084-0.181
	c0.156-0.852,0.467-1.473,0.939-1.861c0.47-0.388,1.146-0.584,2.021-0.584c0.684,0,1.22,0.13,1.608,0.386
	c0.39,0.257,0.635,0.575,0.737,0.954s0.153,0.932,0.153,1.66v1.793c0,1.255,0.022,2.049,0.071,2.374
	c0.045,0.326,0.141,0.646,0.281,0.955h-1.153C81.823,77.766,81.749,77.439,81.714,77.06z M71.487,74.009
	c0,0.822,0.074,1.438,0.226,1.849c0.147,0.408,0.359,0.719,0.635,0.934c0.273,0.213,0.576,0.321,0.911,0.321
	c0.455,0,0.857-0.255,1.208-0.769c0.352-0.509,0.527-1.273,0.527-2.291c0-1.042-0.168-1.808-0.507-2.294
	c-0.34-0.488-0.757-0.733-1.249-0.733c-0.454,0-0.859,0.255-1.217,0.765C71.666,72.302,71.487,73.043,71.487,74.009z M71.503,78.04
	h-1.026V67.078h1.1v3.91c0.235-0.357,0.5-0.626,0.796-0.804c0.297-0.176,0.628-0.266,0.99-0.266c0.511,0,0.973,0.153,1.389,0.457
	c0.416,0.304,0.748,0.766,0.997,1.384c0.25,0.617,0.373,1.368,0.373,2.25c0,1.345-0.281,2.384-0.845,3.114
	c-0.561,0.73-1.219,1.095-1.972,1.095c-0.381,0-0.72-0.097-1.021-0.294c-0.302-0.198-0.563-0.49-0.781-0.88V78.04z M66.014,69.104
	v-1.106h3.827v1.106H66.014z M67.427,78.04V70.1h1.1v7.939H67.427z M62.949,68.291l0.682-1.271h1.247l-1.375,2.092H62.32
	l-1.322-2.092h1.265L62.949,68.291z M60.295,75.668l1.092-0.21c0.063,0.56,0.241,0.975,0.531,1.245
	c0.288,0.271,0.673,0.41,1.151,0.41c0.479,0,0.85-0.121,1.11-0.355c0.262-0.237,0.392-0.539,0.392-0.9
	c0-0.318-0.112-0.559-0.336-0.735c-0.153-0.118-0.529-0.269-1.121-0.447c-0.857-0.265-1.431-0.49-1.721-0.673
	c-0.288-0.184-0.512-0.432-0.673-0.741c-0.158-0.31-0.237-0.661-0.237-1.054c0-0.679,0.217-1.23,0.649-1.654
	c0.433-0.423,1.035-0.635,1.804-0.635c0.482,0,0.905,0.09,1.273,0.263c0.368,0.173,0.646,0.408,0.842,0.702
	c0.194,0.296,0.329,0.717,0.404,1.263l-1.078,0.18c-0.1-0.867-0.571-1.301-1.413-1.301c-0.478,0-0.834,0.097-1.07,0.288
	c-0.231,0.192-0.35,0.436-0.35,0.735c0,0.297,0.112,0.526,0.335,0.696c0.135,0.1,0.533,0.259,1.196,0.478
	c0.914,0.296,1.504,0.529,1.773,0.7c0.269,0.174,0.478,0.406,0.628,0.705c0.148,0.296,0.225,0.647,0.225,1.056
	c0,0.759-0.243,1.371-0.723,1.84c-0.482,0.467-1.138,0.702-1.97,0.702C61.448,78.226,60.544,77.373,60.295,75.668z M54.45,74.068
	c0,1.028,0.188,1.792,0.559,2.291c0.375,0.503,0.839,0.754,1.392,0.754c0.517,0,0.964-0.253,1.334-0.761
	c0.373-0.506,0.559-1.266,0.559-2.284c0-1.021-0.188-1.782-0.562-2.284c-0.375-0.5-0.837-0.751-1.391-0.751
	c-0.524,0-0.969,0.254-1.34,0.755C54.634,72.292,54.45,73.052,54.45,74.068z M53.319,74.068c0-1.37,0.289-2.404,0.865-3.101
	c0.575-0.699,1.304-1.049,2.188-1.049c0.865,0,1.592,0.351,2.174,1.049c0.584,0.696,0.875,1.702,0.875,3.019
	c0,1.427-0.286,2.488-0.86,3.186c-0.575,0.7-1.304,1.046-2.19,1.046c-0.873,0-1.6-0.351-2.18-1.049
	C53.611,76.468,53.319,75.434,53.319,74.068z M49.551,78.04V70.1h0.996v1.202c0.254-0.557,0.487-0.927,0.699-1.11
	c0.212-0.182,0.449-0.273,0.714-0.273c0.368,0,0.745,0.146,1.128,0.435l-0.373,1.25c-0.275-0.195-0.541-0.292-0.802-0.292
	c-0.235,0-0.449,0.084-0.643,0.247c-0.194,0.164-0.331,0.393-0.411,0.686c-0.141,0.516-0.208,1.062-0.208,1.639v4.157H49.551z
	 M43.303,74.076c0,1.028,0.176,1.788,0.533,2.29c0.357,0.497,0.77,0.748,1.245,0.748c0.467,0,0.875-0.239,1.217-0.72
	c0.345-0.478,0.516-1.2,0.516-2.166c0-1.114-0.171-1.925-0.516-2.436c-0.341-0.509-0.776-0.765-1.299-0.765
	c-0.463,0-0.862,0.245-1.196,0.737C43.469,72.253,43.303,73.025,43.303,74.076z M46.794,78.04v-1.003
	c-0.2,0.385-0.457,0.679-0.771,0.881c-0.313,0.202-0.652,0.301-1.018,0.301c-0.765,0-1.431-0.362-1.99-1.088
	c-0.562-0.723-0.842-1.745-0.842-3.062c0-0.901,0.125-1.667,0.375-2.294c0.247-0.627,0.582-1.094,0.997-1.398
	c0.416-0.304,0.877-0.457,1.386-0.457c0.365,0,0.703,0.097,1.014,0.289c0.311,0.191,0.568,0.458,0.773,0.803v-3.933h1.107V78.04
	H46.794z M171.775,60.701v-1.167c-0.253,0.449-0.555,0.787-0.896,1.01c-0.345,0.223-0.733,0.335-1.167,0.335
	c-0.515,0-0.952-0.137-1.317-0.413c-0.365-0.279-0.608-0.628-0.73-1.053c-0.119-0.423-0.181-1-0.181-1.735v-4.917h1.097v4.402
	c0,0.819,0.041,1.366,0.126,1.64c0.081,0.279,0.231,0.501,0.454,0.667c0.222,0.166,0.475,0.25,0.761,0.25
	c0.528,0,0.961-0.215,1.298-0.651c0.292-0.372,0.434-1.058,0.434-2.053v-4.255h1.107v7.939H171.775z M163.313,63.781l0.208-1.144
	c0.22,0.069,0.39,0.104,0.515,0.104c0.236,0,0.404-0.092,0.512-0.278c0.106-0.184,0.161-0.639,0.161-1.361v-8.342h1.099v8.374
	c0,1.082-0.137,1.817-0.413,2.205c-0.279,0.39-0.684,0.584-1.218,0.584C163.878,63.924,163.59,63.875,163.313,63.781z
	 M164.708,51.302V49.74h1.099v1.562H164.708z M161.926,60.701v-7.939h1.1v7.939H161.926z M161.926,51.289V49.74h1.1v1.549H161.926z
	 M157.838,50.391v1.375h-1.128v-1.375c0-0.802,0.306-1.368,0.918-1.698l0.278,0.518c-0.39,0.214-0.6,0.607-0.627,1.18H157.838z
	 M155.655,56.59c0,1.041,0.171,1.801,0.516,2.279c0.345,0.479,0.766,0.717,1.264,0.717c0.498,0,0.922-0.232,1.271-0.703
	c0.35-0.469,0.523-1.213,0.523-2.234c0-0.999-0.178-1.739-0.539-2.224c-0.357-0.486-0.794-0.729-1.31-0.729
	c-0.456,0-0.859,0.243-1.207,0.729C155.829,54.91,155.655,55.633,155.655,56.59z M154.734,61.36l1.077,0.193
	c0.051,0.424,0.199,0.74,0.449,0.947c0.25,0.208,0.594,0.31,1.038,0.31c0.485,0,0.871-0.116,1.157-0.347
	c0.286-0.233,0.482-0.577,0.587-1.036c0.063-0.279,0.097-0.868,0.097-1.764c-0.24,0.345-0.508,0.602-0.807,0.776
	c-0.3,0.176-0.633,0.263-0.996,0.263c-0.778,0-1.423-0.33-1.937-0.988c-0.586-0.757-0.882-1.771-0.882-3.042
	c0-0.853,0.13-1.598,0.39-2.236c0.259-0.637,0.6-1.107,1.021-1.406c0.422-0.298,0.894-0.449,1.417-0.449
	c0.383,0,0.733,0.095,1.049,0.286c0.316,0.189,0.598,0.472,0.842,0.853v-0.957h1.015v6.862c0,1.223-0.1,2.092-0.298,2.614
	c-0.198,0.52-0.525,0.931-0.978,1.232c-0.454,0.304-1,0.455-1.639,0.455c-0.841,0-1.49-0.228-1.945-0.682
	C154.938,62.789,154.722,62.161,154.734,61.36z M148.681,56.729c0,1.028,0.187,1.792,0.559,2.292
	c0.375,0.502,0.84,0.753,1.392,0.753c0.517,0,0.964-0.253,1.333-0.76c0.373-0.506,0.559-1.267,0.559-2.285
	c0-1.02-0.188-1.782-0.562-2.284c-0.374-0.5-0.837-0.75-1.39-0.75c-0.523,0-0.97,0.252-1.34,0.755
	C148.864,54.954,148.681,55.714,148.681,56.729z M147.55,56.729c0-1.37,0.289-2.403,0.865-3.101
	c0.575-0.699,1.304-1.049,2.188-1.049c0.865,0,1.592,0.35,2.174,1.049c0.584,0.697,0.875,1.702,0.875,3.02
	c0,1.427-0.286,2.488-0.86,3.185c-0.575,0.698-1.304,1.045-2.189,1.045c-0.874,0-1.601-0.349-2.18-1.049
	C147.841,59.128,147.55,58.095,147.55,56.729z M145.144,60.701V49.74h1.098v10.96H145.144z M138.91,56.729
	c0,1.028,0.186,1.792,0.559,2.292c0.374,0.502,0.839,0.753,1.39,0.753c0.519,0,0.965-0.253,1.335-0.76
	c0.373-0.506,0.559-1.267,0.559-2.285c0-1.02-0.189-1.782-0.562-2.284c-0.375-0.5-0.837-0.75-1.392-0.75
	c-0.522,0-0.969,0.252-1.339,0.755C139.093,54.954,138.91,55.714,138.91,56.729z M137.779,56.729c0-1.37,0.288-2.403,0.865-3.101
	c0.574-0.699,1.304-1.049,2.187-1.049c0.865,0,1.593,0.35,2.175,1.049c0.584,0.697,0.875,1.702,0.875,3.02
	c0,1.427-0.287,2.488-0.861,3.185c-0.574,0.698-1.304,1.045-2.19,1.045c-0.872,0-1.6-0.349-2.179-1.049
	C138.069,59.128,137.779,58.095,137.779,56.729z M131.207,60.701v-7.939h0.996v1.127c0.24-0.438,0.533-0.765,0.878-0.982
	c0.347-0.216,0.745-0.326,1.194-0.326c0.347,0,0.671,0.069,0.967,0.206c0.296,0.139,0.537,0.318,0.717,0.54
	c0.184,0.221,0.32,0.509,0.41,0.862c0.088,0.354,0.135,0.898,0.135,1.631v4.882h-1.108V55.87c0-0.582-0.049-1.008-0.151-1.278
	c-0.1-0.268-0.255-0.479-0.467-0.624c-0.211-0.147-0.456-0.221-0.734-0.221c-0.528,0-0.95,0.199-1.264,0.591
	c-0.314,0.394-0.472,1.071-0.472,2.028v4.335H131.207z M124.225,60.701V49.74h1.1v3.933c0.261-0.363,0.551-0.636,0.877-0.82
	c0.327-0.181,0.688-0.273,1.082-0.273c0.692,0,1.238,0.222,1.641,0.665c0.4,0.438,0.603,1.247,0.603,2.424v5.032h-1.1v-5.032
	c0-0.687-0.122-1.183-0.367-1.481c-0.243-0.299-0.58-0.449-1.008-0.449c-0.479,0-0.886,0.193-1.224,0.576
	c-0.335,0.383-0.504,1.065-0.504,2.042v4.344H124.225z M118.074,55.966h3.631c-0.049-0.685-0.196-1.2-0.439-1.538
	c-0.355-0.492-0.806-0.74-1.355-0.74c-0.492,0-0.913,0.208-1.263,0.618C118.299,54.716,118.107,55.27,118.074,55.966z M121.7,58.144
	l1.136,0.171c-0.189,0.847-0.533,1.488-1.029,1.917c-0.496,0.433-1.11,0.646-1.843,0.646c-0.923,0-1.668-0.349-2.241-1.049
	c-0.568-0.702-0.854-1.711-0.854-3.032c0-1.37,0.288-2.416,0.862-3.137c0.577-0.721,1.307-1.082,2.188-1.082
	c0.843,0,1.547,0.354,2.108,1.061c0.563,0.71,0.845,1.733,0.845,3.074l-0.005,0.359h-4.862c0.046,0.894,0.253,1.564,0.62,2.019
	c0.37,0.455,0.819,0.682,1.347,0.682C120.8,59.774,121.377,59.231,121.7,58.144z M116.211,59.497l0.151,1.188
	c-0.304,0.081-0.58,0.12-0.821,0.12c-0.386,0-0.694-0.076-0.93-0.228c-0.232-0.152-0.392-0.358-0.482-0.624
	C114.043,59.69,114,59.162,114,58.376v-4.569h-0.807v-1.046H114v-1.966l1.099-0.808v2.774h1.112v1.046h-1.112v4.643
	c0,0.429,0.031,0.708,0.098,0.83c0.094,0.181,0.27,0.27,0.529,0.27C115.852,59.55,116.013,59.532,116.211,59.497z M103.561,58.33
	l1.093-0.208c0.063,0.558,0.242,0.975,0.531,1.245c0.288,0.27,0.674,0.408,1.151,0.408c0.479,0,0.849-0.12,1.11-0.355
	c0.262-0.237,0.393-0.539,0.393-0.9c0-0.316-0.112-0.559-0.337-0.736c-0.153-0.117-0.528-0.268-1.121-0.445
	c-0.857-0.266-1.432-0.49-1.72-0.675c-0.288-0.183-0.513-0.431-0.674-0.74c-0.157-0.308-0.237-0.661-0.237-1.053
	c0-0.679,0.217-1.23,0.649-1.655c0.433-0.423,1.035-0.635,1.803-0.635c0.483,0,0.906,0.089,1.275,0.263
	c0.368,0.174,0.646,0.408,0.841,0.702c0.194,0.296,0.329,0.718,0.404,1.262l-1.077,0.182c-0.1-0.867-0.572-1.301-1.414-1.301
	c-0.477,0-0.834,0.096-1.07,0.288c-0.231,0.191-0.349,0.437-0.349,0.736c0,0.295,0.112,0.525,0.334,0.696
	c0.135,0.1,0.533,0.256,1.196,0.476c0.914,0.297,1.504,0.529,1.774,0.7c0.269,0.174,0.478,0.406,0.628,0.705
	c0.148,0.296,0.225,0.648,0.225,1.057c0,0.758-0.243,1.37-0.723,1.84c-0.482,0.467-1.139,0.702-1.97,0.702
	C104.715,60.887,103.811,60.035,103.561,58.33z M101.154,56.715c-0.403,0.202-1.002,0.37-1.802,0.51
	c-0.461,0.079-0.786,0.17-0.972,0.273c-0.184,0.101-0.327,0.244-0.429,0.434c-0.102,0.187-0.153,0.401-0.153,0.645
	c0,0.379,0.118,0.682,0.353,0.91c0.231,0.227,0.556,0.339,0.969,0.339c0.396,0,0.753-0.102,1.074-0.306
	c0.322-0.204,0.561-0.478,0.722-0.82c0.158-0.339,0.237-0.837,0.237-1.49V56.715z M101.244,59.72
	c-0.367,0.386-0.75,0.675-1.151,0.869c-0.398,0.194-0.811,0.291-1.24,0.291c-0.679,0-1.22-0.204-1.624-0.612
	c-0.402-0.408-0.604-0.959-0.604-1.651c0-0.459,0.094-0.864,0.284-1.22c0.188-0.354,0.449-0.629,0.778-0.828
	c0.329-0.2,0.827-0.347,1.496-0.442c0.896-0.13,1.554-0.284,1.972-0.465l0.008-0.341c0-0.543-0.096-0.927-0.291-1.147
	c-0.273-0.317-0.695-0.476-1.263-0.476c-0.514,0-0.899,0.104-1.151,0.316c-0.255,0.212-0.442,0.609-0.562,1.194l-1.085-0.182
	c0.155-0.853,0.467-1.472,0.939-1.86c0.471-0.388,1.146-0.585,2.022-0.585c0.684,0,1.219,0.13,1.607,0.385
	c0.391,0.257,0.635,0.575,0.738,0.955c0.102,0.376,0.153,0.931,0.153,1.658v1.794c0,1.256,0.023,2.05,0.071,2.374
	c0.045,0.328,0.141,0.645,0.28,0.955h-1.153C101.354,60.428,101.28,60.101,101.244,59.72z M92.805,63.781l0.208-1.144
	c0.22,0.069,0.39,0.104,0.515,0.104c0.235,0,0.404-0.092,0.51-0.278c0.108-0.184,0.161-0.639,0.161-1.361v-8.342h1.1v8.374
	c0,1.082-0.137,1.817-0.413,2.205c-0.279,0.39-0.685,0.584-1.218,0.584C93.371,63.924,93.083,63.875,92.805,63.781z M94.2,51.302
	V49.74h1.1v1.562H94.2z M91.419,60.701v-7.939h1.099v7.939H91.419z M91.419,51.289V49.74h1.099v1.549H91.419z M89.408,57.791
	l1.085,0.173c-0.126,0.948-0.437,1.669-0.94,2.167c-0.5,0.5-1.101,0.748-1.804,0.748c-0.852,0-1.554-0.349-2.105-1.049
	c-0.551-0.702-0.827-1.735-0.827-3.108c0-1.38,0.278-2.414,0.834-3.105c0.556-0.689,1.27-1.036,2.141-1.036
	c0.674,0,1.24,0.209,1.702,0.628c0.462,0.421,0.755,1.049,0.886,1.886l-1.069,0.201c-0.105-0.538-0.287-0.941-0.546-1.207
	c-0.258-0.268-0.568-0.4-0.935-0.4c-0.543,0-0.992,0.239-1.35,0.722c-0.355,0.48-0.533,1.243-0.533,2.291
	c0,1.08,0.171,1.864,0.513,2.349c0.339,0.482,0.778,0.725,1.312,0.725c0.418,0,0.776-0.161,1.072-0.483
	C89.14,58.97,89.328,58.47,89.408,57.791z M78.799,51.759v-1.106h3.828v1.106H78.799z M82.313,56.715
	c-0.403,0.202-1.003,0.37-1.802,0.51c-0.461,0.079-0.786,0.17-0.972,0.273c-0.184,0.101-0.327,0.244-0.429,0.434
	c-0.102,0.187-0.153,0.401-0.153,0.645c0,0.379,0.118,0.682,0.353,0.91c0.231,0.227,0.556,0.339,0.97,0.339
	c0.395,0,0.753-0.102,1.074-0.306c0.322-0.204,0.561-0.478,0.722-0.82c0.158-0.339,0.237-0.837,0.237-1.49V56.715z M82.402,59.72
	c-0.367,0.386-0.75,0.675-1.151,0.869c-0.398,0.194-0.811,0.291-1.241,0.291c-0.678,0-1.219-0.204-1.623-0.612
	s-0.604-0.959-0.604-1.651c0-0.459,0.094-0.864,0.284-1.22c0.188-0.354,0.448-0.629,0.778-0.828c0.329-0.2,0.827-0.347,1.496-0.442
	c0.895-0.13,1.554-0.284,1.972-0.465l0.008-0.341c0-0.543-0.098-0.927-0.291-1.147c-0.273-0.317-0.695-0.476-1.264-0.476
	c-0.513,0-0.898,0.104-1.15,0.316c-0.255,0.212-0.442,0.609-0.562,1.194l-1.085-0.182c0.155-0.853,0.467-1.472,0.939-1.86
	c0.47-0.388,1.146-0.585,2.021-0.585c0.684,0,1.22,0.13,1.608,0.385c0.392,0.257,0.635,0.575,0.738,0.955
	c0.102,0.376,0.152,0.931,0.152,1.658v1.794c0,1.256,0.023,2.05,0.072,2.374c0.045,0.328,0.14,0.645,0.28,0.955h-1.153
	C82.511,60.428,82.438,60.101,82.402,59.72z M67.71,60.701v-7.939h0.987v1.113c0.22-0.413,0.501-0.733,0.846-0.956
	c0.344-0.226,0.719-0.338,1.127-0.338c0.459,0,0.847,0.12,1.164,0.358c0.316,0.234,0.541,0.581,0.677,1.032
	c0.259-0.46,0.556-0.811,0.892-1.04c0.337-0.232,0.71-0.35,1.119-0.35c0.623,0,1.115,0.212,1.472,0.635
	c0.359,0.424,0.539,1.103,0.539,2.035v5.451h-1.096v-5.002c0-0.569-0.041-0.97-0.126-1.207c-0.082-0.238-0.214-0.422-0.398-0.549
	c-0.186-0.129-0.394-0.196-0.623-0.196c-0.472,0-0.86,0.189-1.159,0.566c-0.298,0.375-0.446,0.969-0.446,1.774v4.614h-1.108v-5.158
	c0-0.659-0.102-1.124-0.304-1.391c-0.202-0.27-0.479-0.405-0.831-0.405c-0.506,0-0.901,0.203-1.195,0.609
	c-0.291,0.406-0.437,1.15-0.437,2.225v4.12H67.71z M63.515,60.701v-7.939h0.996v1.202c0.255-0.557,0.488-0.926,0.699-1.11
	c0.212-0.181,0.449-0.273,0.714-0.273c0.369,0,0.745,0.145,1.128,0.434l-0.372,1.251c-0.277-0.197-0.542-0.295-0.802-0.295
	c-0.235,0-0.449,0.085-0.643,0.249c-0.194,0.164-0.332,0.394-0.411,0.686c-0.141,0.516-0.209,1.062-0.209,1.639v4.157H63.515z
	 M57.252,56.729c0,1.028,0.186,1.792,0.56,2.292c0.374,0.502,0.839,0.753,1.39,0.753c0.518,0,0.965-0.253,1.335-0.76
	c0.373-0.506,0.559-1.267,0.559-2.285c0-1.02-0.189-1.782-0.562-2.284c-0.375-0.5-0.837-0.75-1.392-0.75
	c-0.522,0-0.97,0.252-1.339,0.755C57.436,54.954,57.252,55.714,57.252,56.729z M56.122,56.729c0-1.37,0.288-2.403,0.865-3.101
	c0.574-0.699,1.304-1.049,2.187-1.049c0.865,0,1.592,0.35,2.175,1.049c0.584,0.697,0.874,1.702,0.874,3.02
	c0,1.427-0.286,2.488-0.859,3.185c-0.574,0.698-1.304,1.045-2.19,1.045c-0.872,0-1.6-0.349-2.179-1.049
	C56.412,59.128,56.122,58.095,56.122,56.729z M53.355,60.701v-6.894h-0.979v-1.046h0.979v-0.844c0-0.626,0.066-1.093,0.196-1.404
	c0.127-0.312,0.327-0.549,0.594-0.713c0.265-0.166,0.6-0.247,1.006-0.247c0.314,0,0.656,0.043,1.031,0.135l-0.166,1.174
	c-0.228-0.051-0.444-0.077-0.648-0.077c-0.329,0-0.567,0.086-0.707,0.259c-0.143,0.172-0.214,0.5-0.214,0.984v0.732h1.27v1.046
	h-1.27v6.894H53.355z M46.059,60.701v-7.939h0.996v1.127c0.239-0.438,0.533-0.765,0.876-0.982c0.348-0.216,0.747-0.326,1.195-0.326
	c0.347,0,0.67,0.069,0.967,0.206c0.296,0.139,0.536,0.318,0.717,0.54c0.184,0.221,0.319,0.509,0.408,0.862
	c0.09,0.354,0.135,0.898,0.135,1.631v4.882h-1.107V55.87c0-0.582-0.049-1.008-0.151-1.278c-0.1-0.268-0.255-0.479-0.467-0.624
	c-0.212-0.147-0.457-0.221-0.735-0.221c-0.528,0-0.949,0.199-1.263,0.591c-0.314,0.394-0.472,1.071-0.472,2.028v4.335H46.059z
	 M42.958,60.701V49.74h1.188v10.96H42.958z"/>
<path fill="#231F20" d="M159.798,91.392c-0.404,0.201-1.004,0.37-1.802,0.51c-0.461,0.08-0.786,0.17-0.972,0.272
	c-0.184,0.102-0.327,0.245-0.429,0.434c-0.102,0.186-0.153,0.4-0.153,0.646c0,0.377,0.117,0.682,0.352,0.909
	c0.232,0.227,0.557,0.339,0.969,0.339c0.396,0,0.753-0.104,1.075-0.306c0.322-0.206,0.562-0.478,0.723-0.82
	c0.157-0.339,0.237-0.837,0.237-1.49V91.392z M159.887,94.397c-0.367,0.386-0.75,0.673-1.151,0.869
	c-0.398,0.193-0.812,0.291-1.241,0.291c-0.678,0-1.219-0.205-1.623-0.613c-0.404-0.408-0.604-0.959-0.604-1.651
	c0-0.459,0.094-0.865,0.282-1.22c0.189-0.354,0.449-0.631,0.779-0.829c0.329-0.2,0.827-0.347,1.496-0.441
	c0.895-0.131,1.554-0.283,1.972-0.465l0.008-0.342c0-0.543-0.098-0.926-0.292-1.146c-0.272-0.319-0.694-0.478-1.263-0.478
	c-0.513,0-0.898,0.105-1.151,0.316c-0.255,0.212-0.441,0.61-0.562,1.195l-1.084-0.182c0.155-0.853,0.467-1.473,0.939-1.861
	c0.469-0.388,1.145-0.584,2.021-0.584c0.684,0,1.221,0.129,1.608,0.386c0.39,0.257,0.635,0.574,0.738,0.955
	c0.101,0.376,0.152,0.931,0.152,1.658v1.794c0,1.257,0.024,2.049,0.073,2.374c0.045,0.327,0.139,0.646,0.28,0.954h-1.153
	C159.996,95.105,159.922,94.778,159.887,94.397z M151.448,98.458l0.21-1.144c0.219,0.069,0.39,0.105,0.515,0.105
	c0.235,0,0.404-0.092,0.51-0.278c0.108-0.184,0.161-0.638,0.161-1.361v-8.342h1.1v8.373c0,1.082-0.138,1.817-0.414,2.206
	c-0.278,0.39-0.684,0.583-1.217,0.583C152.014,98.6,151.726,98.553,151.448,98.458z M152.844,85.978v-1.561h1.1v1.561H152.844z
	 M150.062,95.377v-7.938h1.1v7.938H150.062z M150.062,85.967v-1.549h1.1v1.549H150.062z M148.051,92.468l1.084,0.174
	c-0.125,0.947-0.437,1.669-0.939,2.167c-0.5,0.5-1.102,0.748-1.804,0.748c-0.853,0-1.554-0.35-2.106-1.049
	c-0.55-0.702-0.826-1.735-0.826-3.108c0-1.38,0.278-2.413,0.833-3.105c0.557-0.689,1.271-1.037,2.143-1.037
	c0.672,0,1.239,0.208,1.701,0.627c0.463,0.422,0.755,1.049,0.886,1.886l-1.069,0.202c-0.104-0.538-0.286-0.941-0.545-1.207
	c-0.259-0.268-0.569-0.401-0.935-0.401c-0.543,0-0.992,0.24-1.35,0.724c-0.355,0.479-0.534,1.243-0.534,2.291
	c0,1.08,0.171,1.863,0.514,2.348c0.339,0.483,0.778,0.726,1.311,0.726c0.418,0,0.776-0.161,1.072-0.483
	C147.784,93.646,147.972,93.147,148.051,92.468z M137.48,86.443v-1.104h3.828v1.104H137.48z M141.069,95.377v-1.166
	c-0.253,0.449-0.555,0.787-0.896,1.008c-0.345,0.225-0.732,0.337-1.166,0.337c-0.516,0-0.953-0.139-1.316-0.413
	c-0.365-0.279-0.608-0.628-0.73-1.052c-0.12-0.423-0.182-1-0.182-1.735v-4.917h1.097v4.402c0,0.819,0.042,1.365,0.126,1.64
	c0.082,0.279,0.232,0.501,0.455,0.667c0.222,0.166,0.474,0.25,0.76,0.25c0.528,0,0.963-0.217,1.298-0.651
	c0.292-0.372,0.435-1.058,0.435-2.054v-4.254h1.108v7.938H141.069z M135.768,94.173l0.151,1.189c-0.304,0.08-0.58,0.121-0.822,0.121
	c-0.386,0-0.693-0.077-0.929-0.228c-0.232-0.152-0.394-0.358-0.482-0.625c-0.087-0.263-0.13-0.791-0.13-1.578v-4.568h-0.807v-1.045
	h0.807v-1.968l1.1-0.806v2.774h1.112v1.045h-1.112v4.643c0,0.428,0.03,0.707,0.096,0.829c0.094,0.182,0.271,0.271,0.531,0.271
	C135.409,94.227,135.57,94.209,135.768,94.173z M130.519,95.377v-7.938h1.1v7.938H130.519z M130.519,85.967v-1.549h1.1v1.549
	H130.519z M129.488,94.173l0.151,1.189c-0.304,0.08-0.58,0.121-0.821,0.121c-0.386,0-0.694-0.077-0.93-0.228
	c-0.231-0.152-0.393-0.358-0.482-0.625c-0.086-0.263-0.13-0.791-0.13-1.578v-4.568h-0.806v-1.045h0.806v-1.968l1.1-0.806v2.774
	h1.113v1.045h-1.113v4.643c0,0.428,0.031,0.707,0.098,0.829c0.094,0.182,0.27,0.271,0.531,0.271
	C129.128,94.227,129.289,94.209,129.488,94.173z M120.329,93.007l1.092-0.208c0.063,0.558,0.243,0.974,0.531,1.245
	c0.288,0.27,0.674,0.408,1.151,0.408c0.479,0,0.849-0.12,1.11-0.355c0.263-0.237,0.394-0.539,0.394-0.901
	c0-0.315-0.113-0.558-0.338-0.735c-0.153-0.117-0.527-0.268-1.119-0.447c-0.858-0.264-1.433-0.49-1.72-0.674
	c-0.29-0.184-0.514-0.431-0.674-0.739c-0.159-0.309-0.238-0.661-0.238-1.055c0-0.678,0.217-1.229,0.649-1.653
	c0.434-0.424,1.035-0.635,1.804-0.635c0.482,0,0.906,0.088,1.273,0.263c0.366,0.172,0.646,0.408,0.842,0.701
	c0.194,0.297,0.33,0.718,0.403,1.263l-1.077,0.182c-0.099-0.868-0.572-1.302-1.413-1.302c-0.478,0-0.834,0.098-1.069,0.289
	c-0.232,0.192-0.351,0.437-0.351,0.735c0,0.296,0.112,0.525,0.334,0.697c0.136,0.099,0.534,0.256,1.198,0.477
	c0.913,0.296,1.502,0.528,1.773,0.7c0.268,0.173,0.477,0.405,0.627,0.704c0.148,0.295,0.225,0.649,0.225,1.056
	c0,0.758-0.243,1.371-0.723,1.84c-0.482,0.467-1.137,0.702-1.97,0.702C121.482,95.564,120.579,94.711,120.329,93.007z
	 M113.765,95.377v-7.938h0.996v1.127c0.239-0.438,0.533-0.766,0.878-0.982c0.347-0.218,0.745-0.327,1.194-0.327
	c0.347,0,0.67,0.069,0.967,0.207c0.296,0.138,0.536,0.317,0.717,0.539c0.184,0.221,0.319,0.51,0.408,0.863
	c0.09,0.354,0.135,0.898,0.135,1.631v4.881h-1.107v-4.832c0-0.581-0.049-1.007-0.151-1.278c-0.1-0.268-0.255-0.478-0.467-0.623
	c-0.212-0.147-0.457-0.222-0.735-0.222c-0.528,0-0.949,0.199-1.263,0.592c-0.314,0.394-0.472,1.07-0.472,2.026v4.336H113.765z
	 M110.975,95.377v-7.938h1.1v7.938H110.975z M110.975,85.967v-1.549h1.1v1.549H110.975z M100.786,93.007l1.092-0.208
	c0.063,0.558,0.243,0.974,0.53,1.245c0.288,0.27,0.674,0.408,1.151,0.408c0.479,0,0.849-0.12,1.11-0.355
	c0.263-0.237,0.394-0.539,0.394-0.901c0-0.315-0.114-0.558-0.338-0.735c-0.153-0.117-0.528-0.268-1.119-0.447
	c-0.858-0.264-1.432-0.49-1.72-0.674c-0.289-0.184-0.514-0.431-0.674-0.739c-0.159-0.309-0.238-0.661-0.238-1.055
	c0-0.678,0.218-1.229,0.649-1.653c0.434-0.424,1.035-0.635,1.804-0.635c0.482,0,0.906,0.088,1.273,0.263
	c0.368,0.172,0.646,0.408,0.843,0.701c0.193,0.297,0.329,0.718,0.403,1.263l-1.078,0.182c-0.099-0.868-0.571-1.302-1.413-1.302
	c-0.478,0-0.834,0.098-1.069,0.289c-0.232,0.192-0.349,0.437-0.349,0.735c0,0.296,0.111,0.525,0.333,0.697
	c0.136,0.099,0.534,0.256,1.197,0.477c0.913,0.296,1.503,0.528,1.774,0.7c0.268,0.173,0.476,0.405,0.627,0.704
	c0.148,0.295,0.225,0.649,0.225,1.056c0,0.758-0.243,1.371-0.723,1.84c-0.482,0.467-1.137,0.702-1.97,0.702
	C101.939,95.564,101.035,94.711,100.786,93.007z M98.379,91.392c-0.403,0.201-1.003,0.37-1.802,0.51
	c-0.461,0.08-0.786,0.17-0.972,0.272c-0.185,0.102-0.327,0.245-0.429,0.434c-0.103,0.186-0.154,0.4-0.154,0.646
	c0,0.377,0.118,0.682,0.353,0.909c0.232,0.227,0.557,0.339,0.97,0.339c0.396,0,0.753-0.104,1.075-0.306
	c0.321-0.206,0.561-0.478,0.721-0.82c0.159-0.339,0.238-0.837,0.238-1.49V91.392z M98.469,94.397
	c-0.369,0.386-0.751,0.673-1.151,0.869c-0.398,0.193-0.812,0.291-1.24,0.291c-0.68,0-1.221-0.205-1.623-0.613
	c-0.404-0.408-0.604-0.959-0.604-1.651c0-0.459,0.094-0.865,0.282-1.22c0.189-0.354,0.449-0.631,0.778-0.829
	c0.33-0.2,0.828-0.347,1.496-0.441c0.896-0.131,1.555-0.283,1.973-0.465l0.007-0.342c0-0.543-0.096-0.926-0.29-1.146
	c-0.272-0.319-0.694-0.478-1.264-0.478c-0.512,0-0.898,0.105-1.151,0.316c-0.255,0.212-0.441,0.61-0.562,1.195l-1.084-0.182
	c0.155-0.853,0.466-1.473,0.939-1.861c0.47-0.388,1.146-0.584,2.021-0.584c0.684,0,1.22,0.129,1.608,0.386
	c0.39,0.257,0.635,0.574,0.737,0.955c0.102,0.376,0.153,0.931,0.153,1.658v1.794c0,1.257,0.023,2.049,0.072,2.374
	c0.045,0.327,0.141,0.646,0.281,0.954h-1.155C98.578,95.105,98.504,94.778,98.469,94.397z M87.239,95.377v-7.938h0.996v1.127
	c0.239-0.438,0.533-0.766,0.878-0.982c0.347-0.218,0.745-0.327,1.194-0.327c0.347,0,0.671,0.069,0.968,0.207
	c0.296,0.138,0.535,0.317,0.716,0.539c0.184,0.221,0.319,0.51,0.408,0.863c0.09,0.354,0.135,0.898,0.135,1.631v4.881h-1.107v-4.832
	c0-0.581-0.049-1.007-0.151-1.278c-0.1-0.268-0.255-0.478-0.467-0.623c-0.212-0.147-0.457-0.222-0.735-0.222
	c-0.527,0-0.949,0.199-1.263,0.592c-0.314,0.394-0.472,1.07-0.472,2.026v4.336H87.239z M84.414,91.392
	c-0.404,0.201-1.003,0.37-1.802,0.51c-0.462,0.08-0.786,0.17-0.972,0.272c-0.184,0.102-0.327,0.245-0.429,0.434
	c-0.103,0.186-0.153,0.4-0.153,0.646c0,0.377,0.117,0.682,0.352,0.909c0.232,0.227,0.557,0.339,0.97,0.339
	c0.396,0,0.753-0.104,1.075-0.306c0.321-0.206,0.562-0.478,0.722-0.82c0.159-0.339,0.238-0.837,0.238-1.49V91.392z M84.504,94.397
	c-0.369,0.386-0.751,0.673-1.151,0.869c-0.398,0.193-0.812,0.291-1.241,0.291c-0.679,0-1.22-0.205-1.623-0.613
	c-0.404-0.408-0.604-0.959-0.604-1.651c0-0.459,0.094-0.865,0.282-1.22c0.189-0.354,0.449-0.631,0.778-0.829
	c0.33-0.2,0.828-0.347,1.496-0.441c0.896-0.131,1.554-0.283,1.973-0.465l0.008-0.342c0-0.543-0.098-0.926-0.292-1.146
	c-0.273-0.319-0.694-0.478-1.264-0.478c-0.512,0-0.898,0.105-1.151,0.316c-0.255,0.212-0.441,0.61-0.562,1.195l-1.084-0.182
	c0.155-0.853,0.466-1.473,0.939-1.861c0.469-0.388,1.146-0.584,2.021-0.584c0.684,0,1.22,0.129,1.608,0.386
	c0.39,0.257,0.635,0.574,0.737,0.955c0.102,0.376,0.153,0.931,0.153,1.658v1.794c0,1.257,0.023,2.049,0.072,2.374
	c0.045,0.327,0.141,0.646,0.281,0.954h-1.153C84.613,95.105,84.539,94.778,84.504,94.397z M76.211,85.629l0.682-1.271h1.248
	l-1.375,2.091h-1.181l-1.322-2.091h1.263L76.211,85.629z M73.558,93.007l1.092-0.208c0.063,0.558,0.243,0.974,0.531,1.245
	c0.288,0.27,0.674,0.408,1.151,0.408c0.48,0,0.85-0.12,1.11-0.355c0.262-0.237,0.393-0.539,0.393-0.901
	c0-0.315-0.112-0.558-0.337-0.735c-0.153-0.117-0.527-0.268-1.121-0.447c-0.857-0.264-1.431-0.49-1.72-0.674
	c-0.288-0.184-0.513-0.431-0.672-0.739c-0.159-0.309-0.238-0.661-0.238-1.055c0-0.678,0.218-1.229,0.648-1.653
	c0.434-0.424,1.036-0.635,1.805-0.635c0.482,0,0.906,0.088,1.273,0.263c0.367,0.172,0.645,0.408,0.841,0.701
	c0.194,0.297,0.33,0.718,0.404,1.263l-1.077,0.182c-0.1-0.868-0.572-1.302-1.413-1.302c-0.478,0-0.835,0.098-1.069,0.289
	c-0.233,0.192-0.351,0.437-0.351,0.735c0,0.296,0.112,0.525,0.334,0.697c0.136,0.099,0.533,0.256,1.196,0.477
	c0.914,0.296,1.504,0.528,1.775,0.7c0.268,0.173,0.477,0.405,0.627,0.704c0.149,0.295,0.225,0.649,0.225,1.056
	c0,0.758-0.243,1.371-0.722,1.84c-0.482,0.467-1.138,0.702-1.97,0.702C74.711,95.564,73.807,94.711,73.558,93.007z M69.796,95.377
	v-7.938h0.996v1.202c0.254-0.557,0.486-0.926,0.698-1.111c0.212-0.181,0.449-0.272,0.715-0.272c0.367,0,0.745,0.145,1.128,0.433
	l-0.373,1.251c-0.275-0.196-0.541-0.294-0.802-0.294c-0.233,0-0.449,0.084-0.643,0.248c-0.194,0.165-0.331,0.395-0.41,0.687
	c-0.14,0.515-0.209,1.062-0.209,1.639v4.157H69.796z M63.487,86.436v-1.105h3.828v1.105H63.487z M63.645,90.644h3.632
	c-0.049-0.686-0.197-1.2-0.44-1.539c-0.354-0.492-0.807-0.74-1.354-0.74c-0.494,0-0.914,0.208-1.264,0.618
	C63.87,89.393,63.679,89.947,63.645,90.644z M67.271,92.821l1.135,0.17c-0.188,0.848-0.533,1.488-1.028,1.919
	c-0.495,0.432-1.109,0.646-1.842,0.646c-0.924,0-1.669-0.35-2.241-1.049c-0.569-0.702-0.855-1.712-0.855-3.031
	c0-1.37,0.289-2.417,0.863-3.137c0.576-0.723,1.306-1.082,2.187-1.082c0.842,0,1.547,0.354,2.108,1.062
	c0.565,0.71,0.845,1.733,0.845,3.073l-0.006,0.358h-4.862c0.046,0.894,0.253,1.565,0.622,2.019c0.37,0.455,0.819,0.683,1.347,0.683
	C66.37,94.452,66.947,93.907,67.271,92.821z M58.358,95.377l-2.474-7.938h1.166l1.396,4.754c0.161,0.539,0.302,1.073,0.418,1.6
	c0.098-0.418,0.23-0.922,0.406-1.511l1.449-4.843h1.135l-2.464,7.938H58.358z M50.27,91.407c0,1.029,0.188,1.792,0.559,2.292
	c0.375,0.502,0.84,0.753,1.392,0.753c0.517,0,0.964-0.253,1.334-0.762c0.373-0.504,0.559-1.265,0.559-2.283
	c0-1.021-0.189-1.782-0.562-2.285c-0.375-0.499-0.837-0.75-1.391-0.75c-0.524,0-0.969,0.253-1.34,0.755
	C50.454,89.631,50.27,90.392,50.27,91.407z M49.139,91.407c0-1.371,0.288-2.403,0.865-3.101c0.574-0.7,1.304-1.049,2.188-1.049
	c0.864,0,1.592,0.349,2.174,1.049c0.584,0.698,0.875,1.703,0.875,3.019c0,1.427-0.286,2.488-0.86,3.186
	c-0.575,0.699-1.304,1.046-2.19,1.046c-0.873,0-1.6-0.35-2.18-1.049C49.431,93.805,49.139,92.772,49.139,91.407z M42.568,95.377
	v-7.938h0.995v1.127c0.24-0.438,0.534-0.766,0.877-0.982c0.347-0.218,0.745-0.327,1.195-0.327c0.347,0,0.67,0.069,0.966,0.207
	c0.296,0.138,0.537,0.317,0.718,0.539c0.184,0.221,0.319,0.51,0.409,0.863c0.088,0.354,0.135,0.898,0.135,1.631v4.881h-1.107v-4.832
	c0-0.581-0.049-1.007-0.152-1.278c-0.099-0.268-0.255-0.478-0.466-0.623c-0.212-0.147-0.457-0.222-0.735-0.222
	c-0.528,0-0.949,0.199-1.263,0.592c-0.314,0.394-0.473,1.07-0.473,2.026v4.336H42.568z M141.771,78.04v-1.166
	c-0.252,0.449-0.554,0.785-0.896,1.007c-0.345,0.225-0.733,0.337-1.166,0.337c-0.516,0-0.953-0.137-1.318-0.413
	c-0.364-0.278-0.608-0.628-0.729-1.051c-0.12-0.424-0.182-1-0.182-1.735V70.1h1.097v4.401c0,0.82,0.041,1.365,0.126,1.642
	c0.082,0.278,0.232,0.5,0.454,0.666c0.222,0.166,0.475,0.25,0.761,0.25c0.529,0,0.962-0.217,1.299-0.651
	c0.292-0.373,0.434-1.059,0.434-2.055V70.1h1.107v7.939H141.771z M136.47,76.835l0.149,1.188c-0.303,0.079-0.578,0.12-0.821,0.12
	c-0.386,0-0.694-0.077-0.929-0.227c-0.232-0.154-0.394-0.36-0.482-0.626c-0.087-0.263-0.131-0.792-0.131-1.576v-4.568h-0.806V70.1
	h0.806v-1.968l1.1-0.806V70.1h1.113v1.047h-1.113v4.642c0,0.429,0.031,0.707,0.097,0.829c0.094,0.181,0.271,0.27,0.531,0.27
	C136.111,76.887,136.271,76.871,136.47,76.835z"/>
</svg>
